# xmcd
#
# Track frame offsets:
#	150
#	13536
#	26863
#	36493
#	50367
#	63247
#	77258
#	90772
#	102793
#	119403
#	131663
#	148804
#	162650
#	175340
#	187503
#	200988
#	214466
#	228853
#
# Disc length: 3220 seconds
#
# Revision: 2
# Processed by: cddbd v1.5.1PL0 Copyright (c) Steve Scherf et al.
# Submitted via: audiograbber 1.83.01
#
DISCID=f60c9212
DTITLE=Various Artist - Gettin' Rowdy
DYEAR=1900
DGENRE=
TTITLE0=Hank Williams Jr - All My Rowdy Friends Are Coming Over Tonight
TTITLE1=John Anderson - Black Sheep
TTITLE2=Waylon Jennings - Theme From Dukes of Hazzard (Good Ol' Boys)
TTITLE3=Dwight Yoakam - Guitars, Cadillacs
TTITLE4=Kentucky Headhunters - Dumas Walker
TTITLE5=Travis tritt - Country Club
TTITLE6=Gary Stewart - Drinkin' Thing
TTITLE7=Travis Tritt and marty Stuart - The Whiskey Ain't Workin'
TTITLE8=Charlie Daniels - Drinkin' My Baby Goodbye
TTITLE9=Johnny Lee - Hey Bartender
TTITLE10=Joe Diffie - Prop Me Up Beside the Jukebox (If I Die)
TTITLE11=mark Chestnutt - Brother Jukebox
TTITLE12=Clint Black - Killin' Time
TTITLE13=Shelly West - Jose Cuervo
TTITLE14=David Ball - Look What Followed Me Home
TTITLE15=Mickey Gilley - Don't The Girls All Get Prettier at Closing Time
TTITLE16=Johnny Paycheck - I'm The Only Hell (Mama Ever Raised)
TTITLE17=Willie Nelson - Bloody Mary Morning
EXTD=
EXTT0=Hank Williams Jr.
EXTT1=John Anderson
EXTT2=Waylon Jennings
EXTT3=Dwight Yoakam
EXTT4=The Kentucky Headhunters
EXTT5=Travis Tritt
EXTT6=Gary Stewart
EXTT7=Travis Tritt
EXTT8=The Charlie Daniels Band
EXTT9=Johnny Lee
EXTT10=Joe Diffie
EXTT11=Mark Chesnutt
EXTT12=Clint Black
EXTT13=Shelly West
EXTT14=David Ball
EXTT15=Mickey Gilley
EXTT16=Johnny Paycheck
EXTT17=Willie Nelson
PLAYORDER=
